<svg xmlns="http://www.w3.org/2000/svg" width="24" height="24" fill="none" viewBox="0 0 24 24">
  <path fill="#7E8C9A" fill-rule="evenodd" d="M2.1 1.2a.9.9 0 0 1 .9.9v13.427l5.664-5.663a.9.9 0 0 1 1.135-.113l4.737 3.158 6.68-7.795a.9.9 0 1 1 1.367 1.172l-7.2 8.4a.9.9 0 0 1-1.182.163l-4.786-3.19L3 18.072c0 .68.001 1.137.03 1.49.028.345.078.51.134.618a1.5 1.5 0 0 0 .655.655c.109.056.274.106.618.134.355.03.816.03 1.503.03H20.7a.9.9 0 0 1 0 1.8H5.904c-.641 0-1.176 0-1.613-.036-.456-.037-.884-.117-1.289-.324a3.3 3.3 0 0 1-1.442-1.442c-.206-.405-.287-.833-.324-1.288-.036-.438-.036-.973-.036-1.614V2.1a.9.9 0 0 1 .9-.9Z" clip-rule="evenodd"/>
</svg>
