<svg xmlns="http://www.w3.org/2000/svg" width="24" height="24" fill="none" viewBox="0 0 24 24">
  <path fill="#7E8C9A" fill-rule="evenodd" d="M8.1 3.3c0-1.16.94-2.1 2.1-2.1h3.6c1.16 0 2.1.94 2.1 2.1V12h3.6c1.16 0 2.1.94 2.1 2.1v6.6a2.1 2.1 0 0 1-2.1 2.1h-15a2.1 2.1 0 0 1-2.1-2.1V9.3c0-1.16.94-2.1 2.1-2.1h3.6V3.3Zm0 5.7H4.5a.3.3 0 0 0-.3.3v11.4a.3.3 0 0 0 .3.3h3.6V9Zm1.8 12h4.2V3.3a.3.3 0 0 0-.3-.3h-3.6a.3.3 0 0 0-.3.3V21Zm6 0h3.6a.3.3 0 0 0 .3-.3v-6.6a.3.3 0 0 0-.3-.3h-3.6V21Z" clip-rule="evenodd"/>
</svg>
