<svg xmlns="http://www.w3.org/2000/svg" width="24" height="24" fill="none" viewBox="0 0 24 24">
  <path fill="#7E8C9A" fill-rule="evenodd" d="M7.2 6a4.8 4.8 0 1 1 9.6 0v3.6h1.5a3.3 3.3 0 0 1 3.3 3.3v6.6a3.3 3.3 0 0 1-3.3 3.3H5.7a3.3 3.3 0 0 1-3.3-3.3v-6.6a3.3 3.3 0 0 1 3.3-3.3h1.5V6ZM9 9.6h6V6a3 3 0 0 0-6 0v3.6Zm-3.3 1.8a1.5 1.5 0 0 0-1.5 1.5v6.6A1.5 1.5 0 0 0 5.7 21h12.6a1.5 1.5 0 0 0 1.5-1.5v-6.6a1.5 1.5 0 0 0-1.5-1.5H5.7Zm6.3 3a.9.9 0 0 1 .9.9v1.8a.9.9 0 0 1-1.8 0v-1.8a.9.9 0 0 1 .9-.9Z" clip-rule="evenodd"/>
</svg>
