<svg xmlns="http://www.w3.org/2000/svg" width="24" height="24" fill="none" viewBox="0 0 24 24">
  <path fill="#7E8C9A" fill-rule="evenodd" d="M12.284 3.327a1.5 1.5 0 0 0-.567 0c-.182.035-.371.123-1.063.479L4.066 7.2l6.588 3.394c.692.356.88.444 1.063.48a1.5 1.5 0 0 0 .567 0c.182-.036.37-.124 1.063-.48L19.935 7.2l-6.588-3.394c-.692-.356-.881-.444-1.063-.48Zm-.908-1.768a3.3 3.3 0 0 1 1.248 0c.469.09.901.314 1.45.597l.097.05L22.313 6.4a.9.9 0 0 1 0 1.6l-8.142 4.194-.096.05c-.55.283-.982.507-1.45.597a3.3 3.3 0 0 1-1.249 0c-.468-.09-.9-.314-1.45-.597l-.096-.05L1.688 8a.9.9 0 0 1 0-1.6L9.83 2.206l.096-.05c.55-.283.982-.506 1.45-.597ZM1.3 11.588a.9.9 0 0 1 1.213-.388l8.141 4.194c.692.356.88.444 1.063.48a1.5 1.5 0 0 0 .567 0c.182-.036.37-.124 1.063-.48l8.141-4.194a.9.9 0 0 1 .825 1.6l-8.142 4.194-.096.05c-.55.283-.982.506-1.45.597a3.3 3.3 0 0 1-1.249 0c-.468-.09-.9-.314-1.45-.597l-.096-.05L1.688 12.8a.9.9 0 0 1-.388-1.212Zm0 4.8A.9.9 0 0 1 2.513 16l8.141 4.194c.692.356.88.444 1.063.48a1.5 1.5 0 0 0 .567 0c.182-.036.37-.124 1.063-.48L21.488 16a.9.9 0 0 1 .825 1.6l-8.142 4.194-.096.05c-.55.283-.982.506-1.45.597a3.3 3.3 0 0 1-1.249 0c-.468-.09-.9-.314-1.45-.597l-.096-.05L1.688 17.6a.9.9 0 0 1-.388-1.212Z" clip-rule="evenodd"/>
</svg>
