<svg xmlns="http://www.w3.org/2000/svg" width="24" height="24" fill="none" viewBox="0 0 24 24">
  <path fill="#7E8C9A" fill-rule="evenodd" d="M12.112 3.028c-.113-.058-.278-.028-.36.146L9.61 7.711a2.089 2.089 0 0 1-1.57 1.182l-4.791.728a.267.267 0 0 0-.155.084.377.377 0 0 0 .006.506l3.466 3.53c.486.495.698 1.195.587 1.872L6.335 20.6a.386.386 0 0 0 .034.235c.086.17.25.197.362.135l4.285-2.354a2.039 2.039 0 0 1 1.968 0l4.285 2.354a.24.24 0 0 0 .16.027.355.355 0 0 0 .218-.146.336.336 0 0 0 .066-.248l-.866-4.989a2.172 2.172 0 0 1 .587-1.871L20.9 10.21a.359.359 0 0 0 .096-.202c.031-.223-.12-.37-.245-.388l-4.79-.728a2.09 2.09 0 0 1-1.57-1.182l-2.143-4.537a.312.312 0 0 0-.136-.146Zm-1.987-.622c.496-1.052 1.751-1.525 2.812-.978.414.214.741.56.939.978l2.142 4.536a.29.29 0 0 0 .213.172l4.79.727c1.169.177 1.915 1.287 1.758 2.416-.063.456-.27.884-.594 1.215l-3.467 3.53a.373.373 0 0 0-.095.317l.865 4.989c.193 1.175-.63 2.26-1.742 2.46a2.039 2.039 0 0 1-1.343-.221l-4.285-2.355a.239.239 0 0 0-.236 0l-4.284 2.355c-1.045.574-2.313.136-2.837-.904a2.186 2.186 0 0 1-.203-1.335l.819-4.986a.373.373 0 0 0-.095-.32l-3.466-3.53a2.177 2.177 0 0 1-.038-2.994c.317-.34.738-.567 1.2-.637l4.791-.727a.29.29 0 0 0 .213-.172l2.143-4.536Z" clip-rule="evenodd"/>
</svg>
