<svg xmlns="http://www.w3.org/2000/svg" width="24" height="24" fill="none" viewBox="0 0 24 24">
  <g clip-path="url(#a)">
    <path fill="#7E8C9A" fill-rule="evenodd" d="M12 3a3 3 0 1 0 0 6 3 3 0 0 0 0-6ZM7.2 6a4.8 4.8 0 1 1 9.6 0 4.8 4.8 0 0 1-9.6 0ZM3.6 19.95a6.75 6.75 0 0 1 6.75-6.75h2.55a.9.9 0 1 1 0 1.8h-2.55a4.95 4.95 0 0 0-4.95 4.95c0 .58.47 1.05 1.05 1.05h4.05a.9.9 0 0 1 0 1.8H6.45a2.85 2.85 0 0 1-2.85-2.85Zm20.118-4.104a.9.9 0 0 1 .036 1.272l-5.1 5.4a.9.9 0 0 1-1.323-.016l-2.7-3a.9.9 0 0 1 1.338-1.204l2.047 2.274 4.43-4.69a.9.9 0 0 1 1.272-.036Z" clip-rule="evenodd"/>
  </g>
  <defs>
    <clipPath id="a">
      <path fill="#fff" d="M0 0h24v24H0z"/>
    </clipPath>
  </defs>
</svg>
