<svg xmlns="http://www.w3.org/2000/svg" width="24" height="24" fill="none" viewBox="0 0 24 24">
  <path fill="#7E8C9A" fill-rule="evenodd" d="M8.4 3a3 3 0 1 0 0 6 3 3 0 0 0 0-6ZM3.6 6a4.8 4.8 0 1 1 9.6 0 4.8 4.8 0 0 1-9.6 0Zm11.1-3.9a.9.9 0 0 1 .9-.9 4.8 4.8 0 1 1 0 9.6.9.9 0 0 1 0-1.8 3 3 0 0 0 0-6 .9.9 0 0 1-.9-.9ZM1.2 19.95a6.75 6.75 0 0 1 6.75-6.75h.9a6.75 6.75 0 0 1 6.75 6.75 2.85 2.85 0 0 1-2.85 2.85h-8.7a2.85 2.85 0 0 1-2.85-2.85ZM7.95 15A4.95 4.95 0 0 0 3 19.95c0 .58.47 1.05 1.05 1.05h8.7c.58 0 1.05-.47 1.05-1.05A4.95 4.95 0 0 0 8.85 15h-.9Zm7.05-.9a.9.9 0 0 1 .9-.9h.15a6.75 6.75 0 0 1 6.75 6.75 2.85 2.85 0 0 1-2.85 2.85H18a.9.9 0 1 1 0-1.8h1.95c.58 0 1.05-.47 1.05-1.05A4.95 4.95 0 0 0 16.05 15h-.15a.9.9 0 0 1-.9-.9Z" clip-rule="evenodd"/>
</svg>
