<svg xmlns="http://www.w3.org/2000/svg" width="20" height="20" fill="none" viewBox="0 0 20 20">
  <path fill="#4A545E" fill-rule="evenodd" d="M10 1a.75.75 0 0 1 .75.75v8.787l1.991-1.838A.75.75 0 1 1 13.76 9.8l-3.25 3a.75.75 0 0 1-1.018 0l-3.25-3A.75.75 0 1 1 7.26 8.7l1.991 1.838V1.75A.75.75 0 0 1 10 1ZM1.75 13a.75.75 0 0 1 .75.75v2.5c0 .69.56 1.25 1.25 1.25h12.5c.69 0 1.25-.56 1.25-1.25v-2.5a.75.75 0 0 1 1.5 0v2.5A2.75 2.75 0 0 1 16.25 19H3.75A2.75 2.75 0 0 1 1 16.25v-2.5a.75.75 0 0 1 .75-.75Z" clip-rule="evenodd"/>
</svg>
