<svg xmlns="http://www.w3.org/2000/svg" width="24" height="24" fill="none" viewBox="0 0 24 24">
  <path stroke="#7E8C9A" d="M5.2 9.973c-.04.406-.193 1.026-.358 1.704l-.047.19c-.089.364-.177.734-.243 1.067-.065.327-.115.65-.115.911 0 .684.102 1.211.23 1.691.05.192.1.361.15.525.078.267.153.52.218.826.18.843.254 1.982-.219 4.151a4.583 4.583 0 0 1-.924-.69c-.515-.483-1.038-1.133-1.516-1.912A13.189 13.189 0 0 1 .5 12.696v-1.774C.555 10.25.67 9.58.86 8.92 2.747 2.359 8.64-.24 13.964.678c3.358.579 6.477 2.557 8.184 5.843l-.415.037c-.557.05-.988.34-1.332.665-.267.253-.518.565-.746.85l-.168.206c-.49.598-.911 1.012-1.48 1.089a.94.94 0 0 1 .033-.311c.05-.178.146-.34.29-.557l.045-.069c.274-.41.659-.986.437-1.86l-.067-.265-.259-.087c-.627-.21-1.18-.193-1.672.071-.46.248-.797.679-1.089 1.132-.22.344-.36.634-.42.907-.065.292-.032.525.023.73.02.074.042.142.063.208.068.216.13.411.116.757-.54.507-1.02.744-1.53.848-.54.11-1.15.079-1.974-.012-.495-.501-.612-.721-.688-.931a4.1 4.1 0 0 1-.073-.239 8.326 8.326 0 0 0-.435-1.21v-.001a4.31 4.31 0 0 0-.862-1.299c-.08-.084-.155-.16-.23-.234a6.71 6.71 0 0 1-.516-.562 2.71 2.71 0 0 1 .186-.82c.077-.18.159-.305.257-.452l.068-.103c.128-.197.271-.444.308-.798.035-.339-.03-.723-.195-1.209l-.087-.26-.266-.066a1.91 1.91 0 0 0-.892-.023 1.92 1.92 0 0 0-.718.341c-.2.148-.385.328-.557.504a32.28 32.28 0 0 0-.156.16c-.125.129-.25.258-.39.393l-.145.139-.009.2-.088 2.113c-.333.337-.58.588-.754.791-.203.239-.347.455-.422.725-.063.23-.068.474-.072.721v.046c-.006.28-.013.647-.067 1.187Zm18.26 3.564c-.13 1.955-1.186 3.758-2.323 5.519a4.998 4.998 0 0 1-.499-.718 12.05 12.05 0 0 1-.852-1.846c-.512-1.37-.819-2.764-.797-3.446.028-.97.616-1.545 1.416-2.328l.106-.103c.825-.81 1.767-1.805 1.767-3.559V6.78c.904 1.857 1.365 4.115 1.183 6.757Z"/>
  <path stroke="#7E8C9A" d="M14.175 23.395c-.593.14-1.473.141-2.763-.004-.43-.443-.528-.631-.569-.81a2.23 2.23 0 0 1-.034-.482l.001-.179c.001-.197.003-.44-.007-.729a23.534 23.534 0 0 0-.113-1.397l-.043-.43c-.067-.7-.13-1.464-.135-2.235-.01-1.48.199-2.872.9-3.83 1.27-.069 1.895.199 2.273.621.442.494.663 1.308.884 2.586l.16.922c.208 1.186.38 2.174.477 3 .123 1.044.109 1.734-.054 2.188a1.074 1.074 0 0 1-.325.484c-.145.12-.35.223-.652.294Zm-6.262-.619a.56.56 0 0 1-.319-.39c-.049-.173-.066-.398-.066-.699 0-.148.005-.304.01-.474v-.005c.004-.167.01-.346.01-.531v-.001a26.968 26.968 0 0 0-.03-1.305 6.828 6.828 0 0 1 .004-.866.986.986 0 0 1 .073-.317c.054.156.103.342.145.556.088.452.138.983.163 1.544a37.67 37.67 0 0 1 .01 2.488Zm11.032-1.606-.031.025c-.267.216-.416.337-.58.427-.12.066-.255.118-.473.161-.23-.5-.384-1.147-.429-1.816-.04-.599.012-1.171.147-1.636.343.234.658.62.907 1.104.3.585.458 1.23.459 1.735Z"/>
</svg>
